<svg width="64" height="40" viewBox="0 0 64 40" fill="none" xmlns="http://www.w3.org/2000/svg">
<path d="M31.9149 0.851074C23.4048 0.851074 18.0846 5.10693 15.9574 13.617C19.1489 9.36118 22.8718 7.76544 27.1277 8.8298C29.5564 9.43618 31.291 11.1979 33.2122 13.1479C36.3399 16.3234 39.9622 20 47.8723 20C56.3824 20 61.7027 15.7442 63.8298 7.23405C60.6383 11.4899 56.9154 13.0856 52.6596 12.0213C50.2324 11.4149 48.4963 9.6532 46.575 7.7032C43.4473 4.52767 39.825 0.851074 31.9149 0.851074ZM15.9574 20C7.44734 20 2.12713 24.2559 0 32.766C3.19149 28.5101 6.91436 26.9144 11.1702 27.9787C13.5973 28.5851 15.3335 30.3468 17.2548 32.2968C20.3824 35.4723 24.0048 39.1489 31.9149 39.1489C40.425 39.1489 45.7452 34.8931 47.8723 26.383C44.6809 30.6388 40.958 32.2346 36.7021 31.1702C34.275 30.5638 32.5388 28.8021 30.6176 26.8521C27.4899 23.6766 23.8676 20 15.9574 20Z" fill="#16BDCA"/>
</svg>
