<svg width="70" height="46" viewBox="0 0 70 46" fill="none" xmlns="http://www.w3.org/2000/svg">
<path d="M34.9149 3.85107C26.4048 3.85107 21.0846 8.10693 18.9574 16.617C22.1489 12.3612 25.8718 10.7654 30.1277 11.8298C32.5564 12.4362 34.291 14.1979 36.2122 16.1479C39.3399 19.3234 42.9622 23 50.8723 23C59.3824 23 64.7027 18.7442 66.8298 10.2341C63.6383 14.4899 59.9154 16.0856 55.6596 15.0213C53.2324 14.4149 51.4963 12.6532 49.575 10.7032C46.4473 7.52767 42.825 3.85107 34.9149 3.85107ZM18.9574 23C10.4473 23 5.12713 27.2559 3 35.766C6.19149 31.5101 9.91436 29.9144 14.1702 30.9787C16.5973 31.5851 18.3335 33.3468 20.2548 35.2968C23.3824 38.4723 27.0048 42.1489 34.9149 42.1489C43.425 42.1489 48.7452 37.8931 50.8723 29.383C47.6809 33.6388 43.958 35.2346 39.7021 34.1702C37.275 33.5638 35.5388 31.8021 33.6176 29.8521C30.4899 26.6766 26.8676 23 18.9574 23Z" fill="#16BDCA"/>
</svg>
